<?xml version="1.0" encoding="utf-8"?>
<!-- Generator: Adobe Illustrator 23.0.3, SVG Export Plug-In . SVG Version: 6.00 Build 0)  -->
<svg version="1.1" id="Layer_1" xmlns="http://www.w3.org/2000/svg" xmlns:xlink="http://www.w3.org/1999/xlink" x="0px" y="0px"
	 viewBox="0 0 263 165" style="enable-background:new 0 0 263 165;" xml:space="preserve">
<style type="text/css">
	.st0{fill:#FF7F50;}
	.st1{fill:#FFFFFF;}
</style>
<g>
	<g>
		<path class="st0" d="M59.6,75.2L56.2,89l32.1,65L59.6,75.2z M21.8,6L7,60.5h10.2l3.6-14.4h16.5L43,59.4l3.6,10.2l5.8-12.3L34.5,6
			H21.8z M22.2,38.2l3.1-12.5c0.7-3.2,1.6-7.7,2.3-11.1h0.2c0.7,3.3,1.6,7.7,2.4,11.1l3.1,12.4H22.2z"/>
		<path class="st1" d="M48.5,74.6l-1.9,8.8c-0.9,4.5-1.6,8.8-2.1,13h-0.2c-0.7-4.3-1.6-8.4-2.7-13l-4-16.9h-8l-4.2,17.4
			c-0.9,3.9-2,8.3-2.7,12.5h-0.2c-0.5-4.2-1.3-8.4-2-12.6l-3.2-17.3H7l10.5,39.5h9.1l4.1-15.1c1-3.8,1.8-7.7,2.5-12.4h0.1
			c0.7,4.7,1.5,8.5,2.4,12.4l3.8,15.1h9.1l5.5-19.6L76.6,7.1L48.5,74.6z"/>
		<path class="st0" d="M103.4,94.5V80c0-8.6-3.2-16.4-15-16.4c-5.9,0-10.6,1.8-13.1,3.3l1.9,6.8c2.4-1.6,5.8-2.7,9.3-2.7
			c5.5,0,6.8,3,6.8,6.9c-12,0-20.7,4.7-20.7,14.9c0,6.4,4.4,11.8,11.4,11.8c4.2,0,7.9-1.8,10.1-4.9h0.2l0.6,4.1h9
			C103.5,101.4,103.4,97.9,103.4,94.5z M93.6,90.3c0,5-3.9,6.8-6.3,6.8c-2.5,0-4.8-1.6-4.8-5.4c0-5.7,5.6-7.1,11.1-7.1V90.3z"/>
		<path class="st0" d="M125.9,64.4c-3.5,0-7.6,2.6-9.4,7.7h-0.3l-0.4-6.9h-8.6c0.1,3.5,0.3,7.4,0.3,12.3v27.1h10.1V84.4
			c0-6.7,3.5-9.9,8-9.9c1,0,1.8,0.1,2.6,0.2v-10C127.4,64.5,126.8,64.4,125.9,64.4z"/>
		<path class="st0" d="M152.2,64.5c-5.5,0-9.2,3.3-10.9,6.2H141l-0.5-5.3h-8.7c0.1,3.5,0.3,7.2,0.3,11.8v27.6h10.1V81.3
			c0-6,3.7-8.2,6.5-8.2c4.3,0,5.8,3.8,5.8,8.6v23h10.1V80.6C164.5,69.5,159.1,64.5,152.2,64.5z"/>
		<path class="st0" d="M200.6,83.1c0-12.8-6-19.6-15.2-19.6c-11.1,0-17.3,9.8-17.3,21.1c0,12.3,6.7,19.9,18.4,19.9
			c4.7,0,9.1-0.9,12.2-2.3l-1.4-7.2c-2.6,0.9-5.5,1.6-9.2,1.6c-5.4,0-10.1-2.7-10.3-9.4h22.6C200.6,86.2,200.6,84.7,200.6,83.1z
			 M191.3,80h-13.6c0.3-3.9,2.3-9.1,7.1-9.1C189.8,70.9,191.4,75.9,191.3,80z"/>
		<path class="st0" d="M220,80.6c-4.4-1.9-5.8-3-5.8-5.2c0-2.1,1.6-3.8,4.7-3.8c2.9,0,5.5,1.1,7.1,2.1l1.9-7.4
			c-2.2-1.2-5.5-2.2-9.4-2.2c-8.4,0-13.9,5.4-13.9,12.5c0,4.3,2.6,8.5,9.7,11.5c4.1,1.8,5.4,3.1,5.4,5.5c0,2.4-1.7,4-5.2,4
			c-3.1,0-6.9-1.4-8.8-2.6l-1.9,7.6c2.5,1.6,6.5,2.6,10.7,2.6c9.4,0,14.9-5,14.9-12.5C229.4,87.2,226.4,83.4,220,80.6z"/>
		<path class="st0" d="M247.6,80.1c-4.4-1.9-5.8-3-5.8-5.2c0-2.1,1.6-3.8,4.7-3.8c2.9,0,5.5,1.1,7.1,2.1l1.9-7.4
			c-2.2-1.2-5.5-2.2-9.4-2.2c-8.4,0-13.9,5.4-13.9,12.5c0,4.3,2.6,8.5,9.7,11.5c4.1,1.8,5.4,3.1,5.4,5.5c0,2.4-1.7,4-5.2,4
			c-3.1,0-6.9-1.4-8.8-2.6l-1.9,7.6c2.5,1.6,6.5,2.6,10.7,2.6c9.4,0,14.9-5,14.9-12.5C257,86.7,254,82.8,247.6,80.1z"/>
	</g>
</g>
</svg>
